<?xml version="1.0" encoding="UTF-8" standalone="no"?>
<!-- Created with Inkscape (http://www.inkscape.org/) -->

<svg
   xmlns:dc="http://purl.org/dc/elements/1.1/"
   xmlns:cc="http://creativecommons.org/ns#"
   xmlns:rdf="http://www.w3.org/1999/02/22-rdf-syntax-ns#"
   xmlns:svg="http://www.w3.org/2000/svg"
   xmlns="http://www.w3.org/2000/svg"
   xmlns:sodipodi="http://sodipodi.sourceforge.net/DTD/sodipodi-0.dtd"
   xmlns:inkscape="http://www.inkscape.org/namespaces/inkscape"
   width="237.3716"
   height="45.064522"
   id="svg4926"
   version="1.1"
   inkscape:version="0.48.4 r9939"
   sodipodi:docname="erocci_logo.svg">
  <defs
     id="defs4928" />
  <sodipodi:namedview
     id="base"
     pagecolor="#ffffff"
     bordercolor="#666666"
     borderopacity="1.0"
     inkscape:pageopacity="0.0"
     inkscape:pageshadow="2"
     inkscape:zoom="3.959798"
     inkscape:cx="113.72043"
     inkscape:cy="22.800407"
     inkscape:document-units="px"
     inkscape:current-layer="layer1"
     showgrid="true"
     inkscape:window-width="1712"
     inkscape:window-height="800"
     inkscape:window-x="180"
     inkscape:window-y="202"
     inkscape:window-maximized="0"
     fit-margin-top="0"
     fit-margin-left="0"
     fit-margin-right="0"
     fit-margin-bottom="0">
    <inkscape:grid
       type="xygrid"
       id="grid4934"
       empspacing="5"
       visible="true"
       enabled="true"
       snapvisiblegridlinesonly="true"
       originx="-185.74695px"
       originy="-168.30305px" />
  </sodipodi:namedview>
  <metadata
     id="metadata4931">
    <rdf:RDF>
      <cc:Work
         rdf:about="">
        <dc:format>image/svg+xml</dc:format>
        <dc:type
           rdf:resource="http://purl.org/dc/dcmitype/StillImage" />
        <dc:title />
      </cc:Work>
    </rdf:RDF>
  </metadata>
  <g
     inkscape:label="Calque 1"
     inkscape:groupmode="layer"
     id="layer1"
     transform="translate(-185.74695,-838.99461)">
    <g
       id="g4845">
      <path
         style="fill:#231f20;fill-opacity:1;fill-rule:evenodd;stroke:none"
         id="path1236"
         inkscape:connector-curvature="0"
         d="m 185.74695,838.99461 c 4.42717,9.48719 35.03758,10.43576 43.65476,13.0618 8.89652,2.70751 7.94794,8.67537 5.1095,13.92017 -5.01348,10.37903 4.62066,8.75539 3.07413,18.08255 -2.10519,-5.84857 -4.47372,-8.50079 -8.93579,-6.77386 -5.43539,-5.48485 0.077,-7.39946 2.31323,-11.95465 l 0.0291,-0.0596 c -4.15365,3.12214 -7.44019,11.5982 -15.93371,1.94225 6.39269,0.97767 11.6695,-3.22836 16.61314,-3.86413 0.0378,-0.17022 0.0713,-0.33899 0.096,-0.50921 -7.22779,0.61687 -16.20432,7.72681 -22.09508,0.20514 7.85047,2.24632 14.6607,-1.94079 22.16927,-1.38067 -0.006,-0.2095 -0.0218,-0.41755 -0.0479,-0.62559 -9.1613,-0.62705 -21.91758,5.04984 -26.07414,-1.8666 8.74812,2.94756 16.52585,-0.70561 25.81081,0.74053 -0.0756,-0.22405 -0.1644,-0.44373 -0.2706,-0.66342 -10.56671,-1.48251 -24.84623,2.8981 -29.89171,-4.58429 10.25827,3.95433 16.50547,0.36808 29.05079,3.26618 -0.13966,-0.17167 -0.28806,-0.33753 -0.44955,-0.50484 -11.10501,-3.43931 -30.93485,0.83801 -36.76596,-9.50465 11.01626,6.28357 22.2973,4.11728 34.58366,7.82864 l -0.0146,-0.008 c -8.12253,-4.7676 -41.43318,-3.68955 -42.02531,-16.74698" />
      <path
         d="m 264.11832,865.1986 c 0,-3.68709 -2.16665,-8.85661 -9.65485,-8.85661 -6.49991,0 -11.25131,5.05549 -11.25131,10.68115 0,5.8157 5.16953,10.71915 11.93551,10.71915 3.0409,0 6.04379,-0.87425 8.55253,-2.58476 0.076,-0.11403 0.11403,-0.38011 0.11403,-0.49414 0,-0.38011 -0.11403,-1.40642 -0.15205,-1.82454 -0.11403,-1.06431 -0.15204,-1.33039 -0.60818,-1.33039 -0.22806,0 -0.38011,0.15204 -0.76022,0.49414 -2.81283,2.66078 -6.04378,2.85084 -7.07008,2.85084 -3.11692,0 -6.65196,-2.58476 -6.65196,-8.17241 l 13.87409,0 c 0.76022,0 1.67249,0 1.67249,-1.48243 m -4.97947,-0.6842 -10.26302,0 c 0.6842,-2.81283 2.81283,-5.28356 5.54963,-5.28356 3.30697,0 4.52334,2.54675 4.71339,5.28356"
         style="font-size:38.01120377px;font-style:normal;font-variant:normal;font-weight:bold;font-stretch:normal;text-align:start;line-height:125%;letter-spacing:0px;word-spacing:0px;text-anchor:start;fill:#1a1a1a;fill-opacity:1;stroke:none;font-family:Latin Modern Sans Quotation;-inkscape-font-specification:Latin Modern Sans Quotation Bold"
         id="path2989"
         inkscape:connector-curvature="0" />
      <path
         d="m 282.13385,859.763 0,-2.16664 c 0,-0.79824 0,-1.06432 -0.79824,-1.06432 -0.26608,0 -2.50874,0.038 -4.59935,1.59647 -1.14034,0.87426 -1.93858,1.78653 -2.81283,3.42101 l -0.038,0 0,-2.96487 c 0,-1.29238 -0.30409,-1.6725 -1.6725,-1.6725 l -2.01459,0 c -1.29238,0 -1.67249,0.3041 -1.67249,1.6725 l 0,17.10504 c 0,1.29238 0.30409,1.67249 1.67249,1.67249 l 2.12863,0 c 1.29238,0 1.67249,-0.30409 1.67249,-1.67249 l 0,-9.35076 c 0,-5.09349 6.30986,-5.47361 7.14611,-5.51162 0.91226,-0.038 0.98829,-0.038 0.98829,-1.06431"
         style="font-size:38.01120377px;font-style:normal;font-variant:normal;font-weight:bold;font-stretch:normal;text-align:start;line-height:125%;letter-spacing:0px;word-spacing:0px;text-anchor:start;fill:#1a1a1a;fill-opacity:1;stroke:none;font-family:Latin Modern Sans Quotation;-inkscape-font-specification:Latin Modern Sans Quotation Bold"
         id="path2991"
         inkscape:connector-curvature="0" />
      <path
         d="m 307.56631,867.2512 c 0,-5.92974 -5.13152,-10.90921 -11.59341,-10.90921 -6.61395,0 -11.63143,5.05549 -11.63143,10.90921 0,5.73969 5.13152,10.49109 11.59341,10.49109 6.57594,0 11.63143,-4.82742 11.63143,-10.49109 m -5.54963,-0.45613 c 0,2.28067 -1e-5,7.94434 -6.04378,7.94434 -6.08179,0 -6.0818,-5.62566 -6.0818,-7.94434 0,-2.16664 1e-5,-7.56423 6.04378,-7.56423 6.08179,0 6.0818,5.35958 6.0818,7.56423"
         style="font-size:38.01120377000000161px;font-style:normal;font-variant:normal;font-weight:normal;font-stretch:normal;text-align:start;line-height:125%;letter-spacing:0px;word-spacing:0px;text-anchor:start;fill:#800000;fill-opacity:1;stroke:none;font-family:Latin Modern Sans;-inkscape-font-specification:Latin Modern Sans"
         id="path2993"
         inkscape:connector-curvature="0" />
      <path
         d="m 332.21651,874.81543 c 0,-0.3421 -0.22806,-2.58476 -0.26607,-2.92686 -0.076,-0.30409 -0.22807,-0.49415 -0.53216,-0.49415 -0.19006,0 -0.26608,0 -0.95028,0.68421 -2.35669,2.24265 -5.01748,2.66078 -6.80401,2.66078 -2.85083,0 -5.89173,-2.0146 -5.89173,-7.64025 0,-3.383 1.06432,-7.75429 6.04378,-7.75429 2.96487,0 4.33328,0.64619 6.30986,2.16664 0.49414,0.41812 0.57017,0.41812 0.76022,0.41812 0.41813,0 0.45614,-0.30409 0.57017,-0.83624 l 0.38011,-2.05261 c 0.076,-0.30409 0.076,-0.38011 0.076,-0.49414 0,-0.3421 -0.26607,-0.49415 -0.26607,-0.49415 -0.49415,-0.26608 -3.19295,-1.7105 -7.7923,-1.7105 -7.4882,0 -11.63143,5.58765 -11.63143,10.79518 0,5.58764 4.75141,10.60512 11.40336,10.60512 2.16664,0 5.16953,-0.38011 8.4765,-2.47072 0.076,-0.11404 0.11403,-0.30409 0.11403,-0.45614"
         style="font-size:38.01120377000000161px;font-style:normal;font-variant:normal;font-weight:normal;font-stretch:normal;text-align:start;line-height:125%;letter-spacing:0px;word-spacing:0px;text-anchor:start;fill:#800000;fill-opacity:1;stroke:none;font-family:Latin Modern Sans;-inkscape-font-specification:Latin Modern Sans"
         id="path2995"
         inkscape:connector-curvature="0" />
      <path
         d="m 355.45383,874.81543 c 0,-0.3421 -0.22807,-2.58476 -0.26608,-2.92686 -0.076,-0.30409 -0.22807,-0.49415 -0.53216,-0.49415 -0.19005,0 -0.26608,0 -0.95028,0.68421 -2.35669,2.24265 -5.01748,2.66078 -6.804,2.66078 -2.85084,0 -5.89174,-2.0146 -5.89174,-7.64025 0,-3.383 1.06432,-7.75429 6.04378,-7.75429 2.96487,0 4.33328,0.64619 6.30986,2.16664 0.49415,0.41812 0.57017,0.41812 0.76022,0.41812 0.41813,0 0.45614,-0.30409 0.57017,-0.83624 l 0.38011,-2.05261 c 0.076,-0.30409 0.076,-0.38011 0.076,-0.49414 0,-0.3421 -0.26608,-0.49415 -0.26608,-0.49415 -0.49415,-0.26608 -3.19295,-1.7105 -7.7923,-1.7105 -7.4882,0 -11.63143,5.58765 -11.63143,10.79518 0,5.58764 4.75141,10.60512 11.40336,10.60512 2.16664,0 5.16953,-0.38011 8.4765,-2.47072 0.076,-0.11404 0.11404,-0.30409 0.11404,-0.45614"
         style="font-size:38.01120377000000161px;font-style:normal;font-variant:normal;font-weight:normal;font-stretch:normal;text-align:start;line-height:125%;letter-spacing:0px;word-spacing:0px;text-anchor:start;fill:#800000;fill-opacity:1;stroke:none;font-family:Latin Modern Sans;-inkscape-font-specification:Latin Modern Sans"
         id="path2997"
         inkscape:connector-curvature="0" />
      <path
         d="m 365.34921,875.68969 0,-17.10504 c 0,-1.29238 -0.30409,-1.6725 -1.67249,-1.6725 l -2.12863,0 c -1.29238,0 -1.67249,0.3041 -1.67249,1.6725 l 0,17.10504 c 0,1.29238 0.30409,1.67249 1.67249,1.67249 l 2.12863,0 c 1.29238,0 1.67249,-0.30409 1.67249,-1.67249 m 0.30409,-24.25115 c 0,-1.21636 -1.21636,-1.21636 -1.67249,-1.21636 l -2.77482,0 c -0.41812,0 -1.67249,0 -1.67249,1.17835 0,1.21636 1.21636,1.21636 1.67249,1.21636 l 2.77482,0 c 0.41812,0 1.67249,0 1.67249,-1.17835"
         style="font-size:38.01120377000000161px;font-style:normal;font-variant:normal;font-weight:normal;font-stretch:normal;text-align:start;line-height:125%;letter-spacing:0px;word-spacing:0px;text-anchor:start;fill:#800000;fill-opacity:1;stroke:none;font-family:Latin Modern Sans;-inkscape-font-specification:Latin Modern Sans"
         id="path2999"
         inkscape:connector-curvature="0" />
      <path
         d="m 423.11854,838.99461 c -4.42717,9.48719 -35.03758,10.43576 -43.65476,13.0618 -8.89652,2.70751 -7.94794,8.67537 -5.1095,13.92017 5.01348,10.37903 -4.62066,8.75539 -3.07413,18.08255 2.10519,-5.84857 4.47372,-8.50079 8.93579,-6.77386 5.43539,-5.48485 -0.077,-7.39946 -2.31323,-11.95465 l -0.0291,-0.0596 c 4.15365,3.12214 7.44019,11.5982 15.93371,1.94225 -6.39269,0.97767 -11.6695,-3.22836 -16.61314,-3.86413 -0.0378,-0.17022 -0.0713,-0.33899 -0.096,-0.50921 7.22779,0.61687 16.20432,7.72681 22.09508,0.20514 -7.85047,2.24632 -14.6607,-1.94079 -22.16927,-1.38067 0.006,-0.2095 0.0218,-0.41755 0.0479,-0.62559 9.1613,-0.62705 21.91758,5.04984 26.07414,-1.8666 -8.74812,2.94756 -16.52585,-0.70561 -25.81081,0.74053 0.0756,-0.22405 0.1644,-0.44373 0.2706,-0.66342 10.56671,-1.48251 24.84623,2.8981 29.89171,-4.58429 -10.25827,3.95433 -16.50547,0.36808 -29.05079,3.26618 0.13966,-0.17167 0.28806,-0.33753 0.44955,-0.50484 11.10501,-3.43931 30.93485,0.83801 36.76596,-9.50465 -11.01626,6.28357 -22.2973,4.11728 -34.58366,7.82864 l 0.0146,-0.008 c 8.12253,-4.7676 41.43318,-3.68955 42.02531,-16.74698"
         inkscape:connector-curvature="0"
         id="path4961"
         style="fill:#231f20;fill-opacity:1;fill-rule:evenodd;stroke:none" />
    </g>
  </g>
</svg>
